<svg id="Layer_1" data-name="Layer 1" xmlns="http://www.w3.org/2000/svg" viewBox="0 0 67.1 69.88"><defs><style>.cls-1{fill:#989898;}</style></defs><title>filter</title><polygon class="cls-1" points="67.1 9.72 24.53 9.72 24.53 0 16.66 0 16.66 9.72 0 9.72 0 16.66 16.66 16.66 16.66 26.38 24.53 26.38 24.53 16.66 67.1 16.66 67.1 9.72"/><polygon class="cls-1" points="67.1 31.47 51.37 31.47 51.37 21.75 43.5 21.75 43.5 31.47 0 31.47 0 38.41 43.5 38.41 43.5 48.13 51.37 48.13 51.37 38.41 67.1 38.41 67.1 31.47"/><polygon class="cls-1" points="67.1 53.22 24.53 53.22 24.53 43.5 16.66 43.5 16.66 53.22 0 53.22 0 60.16 16.66 60.16 16.66 69.88 24.53 69.88 24.53 60.16 67.1 60.16 67.1 53.22"/></svg>